<svg width="58" height="58" viewBox="0 0 58 58" fill="none" xmlns="http://www.w3.org/2000/svg">
<g filter="url(#filter0_d_113_506)">
<rect x="15" y="15" width="28" height="28" rx="14" fill="#2E2A2A"/>
<mask id="mask0_113_506" style="mask-type:alpha" maskUnits="userSpaceOnUse" x="15" y="15" width="28" height="28">
<path d="M29 37.0664C29.7551 37.0664 30.3672 36.4543 30.3672 35.6992C30.3672 34.9441 29.7551 34.332 29 34.332C28.2449 34.332 27.6328 34.9441 27.6328 35.6992C27.6328 36.4543 28.2449 37.0664 29 37.0664Z" fill="#586F69"/>
<path d="M29 15C21.2626 15 15 21.2616 15 29C15 36.7374 21.2616 43 29 43C36.7374 43 43 36.7384 43 29C43 21.2626 36.7384 15 29 15ZM29 40.8125C22.4716 40.8125 17.1875 35.5293 17.1875 29C17.1875 22.4716 22.4707 17.1875 29 17.1875C35.5284 17.1875 40.8125 22.4707 40.8125 29C40.8125 35.5284 35.5293 40.8125 29 40.8125Z" fill="#586F69"/>
<path d="M29 22.0273C26.5876 22.0273 24.625 23.99 24.625 26.4023C24.625 27.0064 25.1147 27.4961 25.7188 27.4961C26.3228 27.4961 26.8125 27.0064 26.8125 26.4023C26.8125 25.1962 27.7938 24.2148 29 24.2148C30.2062 24.2148 31.1875 25.1962 31.1875 26.4023C31.1875 27.6085 30.2062 28.5898 29 28.5898C28.3959 28.5898 27.9062 29.0795 27.9062 29.6836V32.418C27.9062 33.022 28.3959 33.5117 29 33.5117C29.6041 33.5117 30.0938 33.022 30.0938 32.418V30.6389C31.9786 30.152 33.375 28.4372 33.375 26.4023C33.375 23.99 31.4124 22.0273 29 22.0273Z" fill="#586F69"/>
</mask>
<g mask="url(#mask0_113_506)">
<circle cx="29" cy="29" r="14" fill="#F2D78F"/>
</g>
</g>
<defs>
<filter id="filter0_d_113_506" x="0" y="0" width="58" height="58" filterUnits="userSpaceOnUse" color-interpolation-filters="sRGB">
<feFlood flood-opacity="0" result="BackgroundImageFix"/>
<feColorMatrix in="SourceAlpha" type="matrix" values="0 0 0 0 0 0 0 0 0 0 0 0 0 0 0 0 0 0 127 0" result="hardAlpha"/>
<feOffset/>
<feGaussianBlur stdDeviation="7.5"/>
<feComposite in2="hardAlpha" operator="out"/>
<feColorMatrix type="matrix" values="0 0 0 0 0.94902 0 0 0 0 0.843137 0 0 0 0 0.560784 0 0 0 0.6 0"/>
<feBlend mode="normal" in2="BackgroundImageFix" result="effect1_dropShadow_113_506"/>
<feBlend mode="normal" in="SourceGraphic" in2="effect1_dropShadow_113_506" result="shape"/>
</filter>
</defs>
</svg>
