<svg width="44" height="44" viewBox="0 0 44 44" fill="none" xmlns="http://www.w3.org/2000/svg">
<path d="M24.5928 21.998L32.4633 14.1275C33.1801 13.4107 33.1801 12.252 32.4633 11.5352C31.7465 10.8184 30.5878 10.8184 29.871 11.5352L22.0005 19.4057L14.13 11.5352C13.4131 10.8184 12.2545 10.8184 11.5376 11.5352C10.8208 12.252 10.8208 13.4107 11.5376 14.1275L19.4081 21.998L11.5376 29.8685C10.8208 30.5853 10.8208 31.744 11.5376 32.4608C11.8951 32.8183 12.3645 32.998 12.8338 32.998C13.3031 32.998 13.7725 32.8183 14.13 32.4608L22.0005 24.5903L29.871 32.4608C30.2285 32.8183 30.6978 32.998 31.1671 32.998C31.6365 32.998 32.1058 32.8183 32.4633 32.4608C33.1801 31.744 33.1801 30.5853 32.4633 29.8685L24.5928 21.998Z" fill="#F2D78F" fill-opacity="0.6"/>
<mask id="mask0_110_486" style="mask-type:alpha" maskUnits="userSpaceOnUse" x="11" y="10" width="22" height="23">
<path d="M24.5928 21.998L32.4633 14.1275C33.1801 13.4107 33.1801 12.252 32.4633 11.5352C31.7465 10.8184 30.5878 10.8184 29.871 11.5352L22.0005 19.4057L14.13 11.5352C13.4131 10.8184 12.2545 10.8184 11.5376 11.5352C10.8208 12.252 10.8208 13.4107 11.5376 14.1275L19.4081 21.998L11.5376 29.8685C10.8208 30.5853 10.8208 31.744 11.5376 32.4608C11.8951 32.8183 12.3645 32.998 12.8338 32.998C13.3031 32.998 13.7725 32.8183 14.13 32.4608L22.0005 24.5903L29.871 32.4608C30.2285 32.8183 30.6978 32.998 31.1671 32.998C31.6365 32.998 32.1058 32.8183 32.4633 32.4608C33.1801 31.744 33.1801 30.5853 32.4633 29.8685L24.5928 21.998Z" fill="white"/>
</mask>
<g mask="url(#mask0_110_486)">
</g>
</svg>
