<svg width="91" height="84" viewBox="0 0 91 84" fill="none" xmlns="http://www.w3.org/2000/svg">
<path d="M32.7795 30.164C32.7795 29.949 32.7367 29.734 32.7367 29.562C32.7367 29.433 32.7367 29.261 32.7367 29.132C32.7367 24.918 29.3145 21.478 25.1223 21.478C20.93 21.478 17.5078 24.918 17.5078 29.132C17.5078 33.346 20.93 36.786 25.1223 36.786C25.9778 36.786 26.7906 36.657 27.5606 36.399C28.245 36.485 29.9561 36.829 32.865 38.506C33.3356 38.807 33.6544 38.807 34.0394 38.979C35.1089 38.506 36.8628 37.732 39.0016 36.786C37.4616 36.012 32.9506 32.787 32.7795 30.164ZM19.3045 29.132C19.3045 25.907 21.9139 23.284 25.1223 23.284C28.3306 23.284 30.94 25.907 30.94 29.132C30.94 32.357 28.3306 34.98 25.1223 34.98C21.9139 34.98 19.3045 32.4 19.3045 29.132Z" fill="#F2D78F"/>
<path d="M40.873 43.67C41.6858 44.143 59.6432 54.1579 62.5093 55.4909C65.4182 56.8669 67.0866 56.1359 67.0866 56.1359C67.0866 56.1359 47.7603 42.079 46.0064 40.875C44.1242 41.907 42.3275 42.853 40.873 43.67Z" fill="#F2D78F"/>
<path d="M57.0673 40.3979H53.4494C53.0664 40.3979 52.7559 40.7085 52.7559 41.0915C52.7559 41.4745 53.0664 41.785 53.4494 41.785H57.0673C57.4503 41.785 57.7609 41.4745 57.7609 41.0915C57.7609 40.7085 57.4503 40.3979 57.0673 40.3979Z" fill="#F2D78F"/>
<path d="M69.0019 40.3979H59.9084C59.5254 40.3979 59.2148 40.7085 59.2148 41.0915C59.2148 41.4745 59.5254 41.785 59.9084 41.785H69.0019C69.3849 41.785 69.6954 41.4745 69.6954 41.0915C69.6954 40.7085 69.3849 40.3979 69.0019 40.3979Z" fill="#F2D78F"/>
<path d="M80.9374 40.3979H71.8439C71.4609 40.3979 71.1504 40.7085 71.1504 41.0915C71.1504 41.4745 71.4609 41.785 71.8439 41.785H80.9374C81.3204 41.785 81.6309 41.4745 81.6309 41.0915C81.6309 40.7085 81.3204 40.3979 80.9374 40.3979Z" fill="#F2D78F"/>
<path d="M64.7345 26.7671C61.6973 27.8421 34.4051 39.9251 34.4051 39.9251C34.4051 39.9251 34.619 43.1071 32.0095 44.3541C29.1434 45.7301 26.7479 45.4721 26.0634 45.3861C25.9779 45.3861 25.9351 45.3431 25.8495 45.3431C25.4645 45.3001 25.0795 45.2571 24.6945 45.2571C20.5023 45.2571 17.0801 48.6971 17.0801 52.9111C17.0801 57.1251 20.5023 60.5651 24.6945 60.5651C28.8867 60.5651 32.309 57.1251 32.309 52.9111C32.309 52.6961 32.309 52.4811 32.2662 52.2661C32.2662 52.2661 32.8651 47.4071 35.9023 45.3861C37.4851 44.3541 68.9267 27.5411 68.9267 27.5411C68.9267 27.5411 67.7717 25.6921 64.7345 26.7671ZM24.6945 58.8021C21.4862 58.8021 18.8767 56.1791 18.8767 52.9541C18.8767 49.7291 21.4862 47.1061 24.6945 47.1061C27.9029 47.1061 30.5123 49.7291 30.5123 52.9541C30.5123 56.1361 27.9029 58.8021 24.6945 58.8021ZM39.5384 41.2581C39.0251 41.2581 38.6401 40.8281 38.6401 40.3551C38.6401 39.8391 39.0679 39.4521 39.5384 39.4521C40.0517 39.4521 40.4367 39.8821 40.4367 40.3551C40.4367 40.8281 40.009 41.2581 39.5384 41.2581Z" fill="#F2D78F"/>
<circle cx="41.5" cy="42" r="40.5" stroke="#F2D78F" stroke-width="2"/>
</svg>
