<svg width="45" height="46" viewBox="0 0 45 46" fill="none" xmlns="http://www.w3.org/2000/svg">
<g clip-path="url(#clip0)">
<path d="M28.9961 0.947396C28.7897 0.730072 28.5068 0.599609 28.2136 0.599609H10.6592C7.4199 0.599609 4.74609 3.26277 4.74609 6.50168V39.6973C4.74609 42.9365 7.4199 45.5997 10.6592 45.5997H34.4851C37.7244 45.5997 40.3982 42.9365 40.3982 39.6973V13.3386C40.3982 13.0561 40.2677 12.7845 40.083 12.5778L28.9961 0.947396ZM29.3112 4.43659L36.7353 12.23H31.9092C30.4744 12.23 29.3112 11.0778 29.3112 9.64309V4.43659ZM34.4851 43.4258H10.6592C8.62668 43.4258 6.92002 41.7411 6.92002 39.6973V6.50168C6.92002 4.46921 8.61569 2.77353 10.6592 2.77353H27.1373V9.64309C27.1373 12.2843 29.268 14.404 31.9092 14.404H38.2242V39.6973C38.2242 41.7411 36.5286 43.4258 34.4851 43.4258Z" fill="#E1B545"/>
<path d="M31.5173 35.9259H13.626C13.0283 35.9259 12.5391 36.4148 12.5391 37.0129C12.5391 37.6106 13.0283 38.0998 13.626 38.0998H31.5283C32.126 38.0998 32.6152 37.6106 32.6152 37.0129C32.6152 36.4148 32.126 35.9259 31.5173 35.9259Z" fill="#E1B545"/>
<path d="M21.7782 32.0237C21.9849 32.241 22.2674 32.3714 22.5716 32.3714C22.8762 32.3714 23.1587 32.241 23.365 32.0237L29.7347 25.1867C30.1477 24.7517 30.1151 24.0562 29.6805 23.6541C29.2455 23.2411 28.5499 23.2734 28.1479 23.7084L23.6586 28.5235V16.6541C23.6586 16.056 23.1694 15.5671 22.5716 15.5671C21.9739 15.5671 21.4847 16.056 21.4847 16.6541V28.5235L17.0064 23.7084C16.5933 23.2737 15.9084 23.2411 15.4738 23.6541C15.0391 24.0671 15.0065 24.7521 15.4195 25.1867L21.7782 32.0237Z" fill="#E1B545"/>
</g>
<defs>
<clipPath id="clip0">
<rect width="45" height="45" fill="white" transform="translate(0 0.6875)"/>
</clipPath>
</defs>
</svg>
