<svg width="46" height="46" viewBox="0 0 46 46" fill="none" xmlns="http://www.w3.org/2000/svg">
<g clip-path="url(#clip0)">
<path d="M44.7929 35.4866L35.4824 29.2775C34.3008 28.4959 32.717 28.7531 31.8435 29.8685L29.1314 33.3556C28.7829 33.8151 28.1493 33.9484 27.6451 33.6684L27.1292 33.384C25.419 32.4518 23.2911 31.2913 19.0038 27.0024C14.7164 22.7135 13.5536 20.584 12.6214 18.877L12.3385 18.3611C12.0546 17.8569 12.1854 17.2207 12.6451 16.8694L16.1298 14.1581C17.2448 13.2845 17.5024 11.7011 16.7216 10.5192L10.5126 1.20868C9.71244 0.00512786 8.10717 -0.35617 6.86849 0.388434L2.97515 2.72717C1.75184 3.44635 0.854348 4.61109 0.470862 5.97732C-0.931121 11.0856 0.123577 19.9018 13.1105 32.8902C23.4414 43.2203 31.1322 45.9983 36.4184 45.9983C37.635 46.0035 38.8468 45.8452 40.0212 45.5277C41.3877 45.1446 42.5526 44.2471 43.2714 43.0234L45.6124 39.1324C46.3581 37.8934 45.997 36.2872 44.7929 35.4866ZM44.2916 38.3458L41.9559 42.2392C41.4398 43.1224 40.602 43.7718 39.6179 44.0513C34.9021 45.346 26.6632 44.2736 14.1952 31.8056C1.72714 19.3376 0.654835 11.0995 1.94956 6.38291C2.22947 5.39765 2.87967 4.55872 3.76396 4.04184L7.6573 1.70616C8.19475 1.38277 8.89148 1.53952 9.23867 2.06179L12.6115 7.12563L15.4424 11.3715C15.7815 11.8842 15.6701 12.5713 15.1864 12.9507L11.7009 15.6619C10.6402 16.473 10.3373 17.9406 10.9904 19.1053L11.2671 19.6082C12.2468 21.405 13.4648 23.6402 17.9116 28.0863C22.3584 32.5323 24.5929 33.7504 26.3889 34.73L26.8925 35.0075C28.0572 35.6604 29.5248 35.3576 30.3359 34.2969L33.0471 30.8114C33.4266 30.328 34.1134 30.2167 34.6263 30.5554L43.936 36.7645C44.4587 37.1114 44.6154 37.8085 44.2916 38.3458Z" fill="#F0CCA0"/>
<path d="M26.0654 7.67062C33.2591 7.67861 39.0887 13.5083 39.0968 20.7021C39.0968 21.1254 39.4399 21.4686 39.8633 21.4686C40.2867 21.4686 40.6298 21.1254 40.6298 20.7021C40.6209 12.662 34.1054 6.14638 26.0654 6.13757C25.642 6.13757 25.2988 6.48073 25.2988 6.9041C25.2988 7.32747 25.642 7.67062 26.0654 7.67062Z" fill="#F0CCA0"/>
<path d="M26.0654 12.27C30.72 12.2755 34.492 16.0474 34.4975 20.7021C34.4975 21.1255 34.8407 21.4686 35.264 21.4686C35.6874 21.4686 36.0305 21.1255 36.0305 20.7021C36.0241 15.2011 31.5663 10.7432 26.0654 10.7369C25.642 10.7369 25.2988 11.0801 25.2988 11.5035C25.2988 11.9268 25.642 12.27 26.0654 12.27Z" fill="#F0CCA0"/>
<path d="M26.0654 16.8692C28.181 16.8717 29.8955 18.5862 29.8981 20.702C29.8981 21.1254 30.2414 21.4685 30.6647 21.4685C31.0879 21.4685 31.4312 21.1254 31.4312 20.702C31.4278 17.74 29.0274 15.3395 26.0654 15.3362C25.642 15.3362 25.2988 15.6793 25.2988 16.1027C25.2988 16.5261 25.642 16.8692 26.0654 16.8692Z" fill="#F0CCA0"/>
</g>
<defs>
<clipPath id="clip0">
<rect width="46" height="46" fill="white"/>
</clipPath>
</defs>
</svg>
