<svg width="48" height="48" viewBox="0 0 48 48" fill="none" xmlns="http://www.w3.org/2000/svg">
<circle cx="24" cy="24" r="20" fill="#53514C"/>
<path d="M27.6439 37.3109C27.0772 37.3109 26.5144 37.0645 26.1301 36.587L16.7603 24.9426C16.1819 24.2226 16.1897 23.194 16.7816 22.4837L26.4853 10.8393C27.1704 10.0164 28.395 9.90579 29.2198 10.5909C30.0427 11.276 30.1533 12.5006 29.4663 13.3234L20.7815 23.7471L29.1558 34.1534C29.8273 34.9879 29.6953 36.2105 28.8588 36.882C28.5017 37.1712 28.0709 37.3109 27.6439 37.3109Z" fill="white"/>
<mask id="mask0_18_1953" style="mask-type:alpha" maskUnits="userSpaceOnUse" x="16" y="10" width="14" height="28">
<path d="M27.6439 37.3109C27.0772 37.3109 26.5144 37.0645 26.1301 36.587L16.7603 24.9426C16.1819 24.2226 16.1897 23.194 16.7816 22.4837L26.4853 10.8393C27.1704 10.0164 28.395 9.90579 29.2198 10.5909C30.0427 11.276 30.1533 12.5006 29.4663 13.3234L20.7815 23.7471L29.1558 34.1534C29.8273 34.9879 29.6953 36.2105 28.8588 36.882C28.5017 37.1712 28.0709 37.3109 27.6439 37.3109Z" fill="white"/>
</mask>
<g mask="url(#mask0_18_1953)">
</g>
</svg>
