<svg width="16" height="16" viewBox="0 0 16 16" fill="none" xmlns="http://www.w3.org/2000/svg">
<g clip-path="url(#clip0)">
<path d="M3.87781 5.03217C4.7827 3.60824 6.06185 2.53044 7.43215 1.76399C9.53013 0.590534 11.8418 0.146932 13.351 0.308404C14.0634 1.48018 14.9416 3.93987 14.5841 6.75419C14.4124 8.10634 13.9555 9.54034 13.0579 10.9527C12.9106 11.1845 12.7579 11.4056 12.6004 11.6164C9.80197 15.3626 5.51279 15.8559 3.62787 15.6084C2.5546 13.9979 1.66523 9.07481 3.60569 5.4954C3.6156 5.4771 3.6256 5.45884 3.63567 5.44061C3.71205 5.30232 3.79272 5.16608 3.87781 5.03217Z" fill="#55A5A6"/>
<path d="M13.351 0.308404C11.8418 0.146932 9.53013 0.590534 7.43215 1.76399M13.351 0.308404L9.20249 6.83642M13.351 0.308404C14.0634 1.48018 14.9416 3.93987 14.5841 6.75419M3.62787 15.6084L6.41518 11.2224M3.62787 15.6084C5.51279 15.8559 9.80197 15.3626 12.6004 11.6164M3.62787 15.6084C2.5546 13.9979 1.66523 9.07481 3.60569 5.4954C3.69087 5.33827 3.7815 5.18373 3.87781 5.03217C4.7827 3.60824 6.06185 2.53044 7.43215 1.76399M7.43215 1.76399L7.68616 2.48811M9.20249 6.83642L14.5841 6.75419M9.20249 6.83642L6.41518 11.2224M9.20249 6.83642L7.86853 3.14653M14.5841 6.75419C14.4124 8.10634 13.9555 9.54035 13.0579 10.9527C12.9106 11.1845 12.7579 11.4056 12.6004 11.6164M6.41518 11.2224L12.6004 11.6164M6.41518 11.2224L5.0915 8.52142M3.60569 5.37638L4.82276 7.98393" stroke="white" stroke-width="0.5"/>
</g>
<defs>
<clipPath id="clip0">
<rect width="16" height="16" fill="white"/>
</clipPath>
</defs>
</svg>
